<svg width="25" height="60" viewBox="0 0 25 60" fill="none" xmlns="http://www.w3.org/2000/svg">
  <path d="M12.3835 9.95947C15.1337 9.95947 17.3632 7.72997 17.3632 4.97973C17.3632 2.2295 15.1337 0 12.3835 0C9.63329 0 7.40381 2.2295 7.40381 4.97973C7.40381 7.72997 9.63329 9.95947 12.3835 9.95947Z" fill="currentColor"/>
  <path d="M18.6738 11.3164H6.22461C2.75193 11.3164 0 14.0684 0 17.5411V32.7424C0 33.9218 0.982835 34.9701 2.22776 34.9701C3.47268 34.9701 4.45551 33.9873 4.45551 32.7424V18.786C4.45551 18.4584 4.7176 18.1963 5.04521 18.1963C5.37282 18.1963 5.63491 18.4584 5.63491 18.786V56.5271C5.63491 58.3618 7.01088 59.9343 8.71446 59.9343C10.418 59.9343 11.794 58.4273 11.794 56.5271V35.0357C11.794 34.7081 12.0561 34.446 12.3837 34.446C12.7113 34.446 12.9734 34.7081 12.9734 35.0357V56.5927C12.9734 58.4273 14.3494 59.9999 16.0529 59.9999C17.7565 59.9999 19.1325 58.4928 19.1325 56.5927V18.786C19.1325 18.4584 19.3946 18.1963 19.7222 18.1963C20.0498 18.1963 20.3119 18.4584 20.3119 18.786V32.8079C20.3119 33.9873 21.2947 35.0357 22.5397 35.0357C23.7846 35.0357 24.7674 34.0528 24.7674 32.8079V17.5411C24.8985 14.0684 22.081 11.3164 18.6738 11.3164Z" fill="currentColor"/>
</svg>
